<?xml version="1.0" encoding="UTF-8"?>
<svg width="1200pt" height="1200pt" version="1.1" viewBox="0 0 1200 1200" xmlns="http://www.w3.org/2000/svg">
 <path d="m600 50.531c145.74 0 285.52 57.891 388.55 160.92s160.92 242.81 160.92 388.55-57.891 285.52-160.92 388.55-242.81 160.92-388.55 160.92-285.52-57.891-388.55-160.92-160.92-242.81-160.92-388.55 57.891-285.52 160.92-388.55 242.81-160.92 388.55-160.92zm148.08 412.92c-6.6094 0-12-5.3906-12-12v-140.53c-0.046875-41.344-33.516-74.859-74.859-75h-122.9c-41.344 0.14062-74.812 33.656-74.859 75v141c0 3.1875-1.2656 6.2344-3.5156 8.4844s-5.2969 3.5156-8.4844 3.5156h-140.53c-41.344 0.046875-74.859 33.516-75 74.859v122.9c0.14062 41.344 33.656 74.812 75 74.859h141c3.1875 0 6.2344 1.2656 8.4844 3.5156s3.5156 5.2969 3.5156 8.4844v140.53c0.046875 41.344 33.516 74.859 74.859 75h122.9c41.344-0.14062 74.812-33.656 74.859-75v-141c0-6.6094 5.3906-12 12-12h140.53c41.344-0.046875 74.859-33.516 75-74.859v-122.9c-0.14062-41.344-33.656-74.812-75-74.859z" fill="#fff" fill-rule="evenodd"/>
</svg>
